<svg width="338" height="338" viewBox="0 0 338 338" fill="none" xmlns="http://www.w3.org/2000/svg">
<g clip-path="url(#clip0_67_41)">
<path d="M190.905 37.413L52.696 98.6585C51.6727 99.1119 51.013 100.161 51.0162 101.281C51.413 240.391 83.0707 282.533 190.554 348.484C191.458 349.038 192.644 349.039 193.548 348.486C301.877 282.262 331.641 238.915 333.07 101.295C333.082 100.168 332.421 99.1089 331.391 98.6523L193.196 37.413C192.466 37.0897 191.634 37.0897 190.905 37.413Z" fill="#DEF54C"/>
<path d="M127.806 9.97113L17.0769 59.1842C9.12601 62.7179 3.97319 70.6441 4.13544 79.3434C6.31952 196.443 35.3298 237.041 125.274 293.848C132.263 298.262 141.225 298.271 148.217 293.862C238.737 236.781 266.28 195.25 269.241 79.4637C269.465 70.7051 264.303 62.6941 256.297 59.1357L145.676 9.97113C139.988 7.44294 133.495 7.44293 127.806 9.97113Z" fill="white" stroke="#022A1E" stroke-width="8"/>
<path d="M127.253 181.298L124.755 184.422L127.253 181.298ZM89.9944 156.613L124.755 184.422L129.752 178.175L94.9919 150.366L89.9944 156.613ZM134.157 183.586L183.998 126.626L177.977 121.358L128.137 178.318L134.157 183.586ZM124.755 184.422C127.607 186.704 131.752 186.336 134.157 183.586L128.137 178.318C128.55 177.846 129.262 177.782 129.752 178.175L124.755 184.422Z" fill="#022A1E"/>
</g>
<defs>
<clipPath id="clip0_67_41">
<rect width="338" height="338" fill="white"/>
</clipPath>
</defs>
</svg>
