<svg width="338" height="338" viewBox="0 0 338 338" fill="none" xmlns="http://www.w3.org/2000/svg">
<path d="M190.905 19.4131L52.696 80.6586C51.6727 81.1121 51.013 82.1614 51.0162 83.2807C51.413 222.391 83.0707 264.533 190.554 330.484C191.458 331.038 192.644 331.039 193.548 330.487C301.877 264.262 331.641 220.916 333.07 83.2955C333.082 82.1684 332.421 81.109 331.391 80.6524L193.196 19.4131C192.466 19.0899 191.634 19.0899 190.905 19.4131Z" fill="#DEF54C"/>
<path d="M127.253 181.298L125.379 183.641L127.253 181.298ZM90.6191 155.832L125.379 183.641L129.127 178.955L94.3672 151.147L90.6191 155.832ZM133.405 182.927L183.245 125.967L178.73 122.016L128.889 178.976L133.405 182.927ZM125.379 183.641C127.814 185.589 131.351 185.274 133.405 182.927L128.889 178.976C128.95 178.907 129.055 178.898 129.127 178.955L125.379 183.641Z" fill="#022A1E"/>
<path d="M135.593 6.51032L5.68051 64.2493C4.65874 64.7034 4.00024 65.7515 4.00355 66.8697C4.39216 198.062 34.1807 237.853 135.243 300.06C136.147 300.617 137.337 300.617 138.242 300.062C240.098 237.597 268.106 196.671 269.465 66.8844C269.477 65.7585 268.817 64.7003 267.788 64.243L137.89 6.51033C137.159 6.18543 136.324 6.18543 135.593 6.51032Z" stroke="#022A1E" stroke-width="6"/>
</svg>
