<svg width="338" height="338" viewBox="0 0 338 338" fill="none" xmlns="http://www.w3.org/2000/svg">
<path fill-rule="evenodd" clip-rule="evenodd" d="M155.67 67.9231H106.731C75.8408 67.9231 50.7998 92.9641 50.7998 123.854V235.715C50.7998 253.777 59.3608 269.838 72.6462 280.064C75.0073 298.055 90.3833 311.943 109 311.943C129.251 311.943 145.667 295.509 145.667 275.236C145.667 261.377 137.995 249.312 126.67 243.065C150.889 246.004 169.653 266.634 169.653 291.646H211.601V248.342C221.707 244.975 233.135 243.078 245.237 243.078C250.873 243.078 256.363 243.489 261.641 244.269C248.222 249.723 238.758 262.902 238.758 278.293C238.758 298.566 255.175 315 275.426 315C295.677 315 312.094 298.566 312.094 278.293C312.094 275.021 311.666 271.848 310.863 268.828C314.574 273.34 317.243 278.278 318.657 283.502C325.975 278.465 330.469 271.636 330.469 264.116V188.607C330.469 180.853 325.594 173.446 317 168.142L257.531 131.444C249.633 126.57 239.212 123.857 228.384 123.857H211.601V123.854C211.601 92.9641 186.56 67.9231 155.67 67.9231Z" fill="#DEF54C"/>
<path d="M180.4 253.222V80.5556M180.4 253.222H209.3M180.4 253.222H108.15M180.4 80.5556C180.4 48.7685 154.522 23 122.6 23H64.8C32.8779 23 7 48.7685 7 80.5556V195.667C7 222.505 25.4478 245.053 50.4056 251.423M180.4 80.5556H226.772C234.114 80.5556 241.181 83.3384 246.537 88.3389L286.866 125.987C292.694 131.427 296 139.027 296 146.981V224.444C296 240.338 283.061 253.222 267.1 253.222M267.1 253.222C267.1 269.116 254.161 282 238.2 282C222.239 282 209.3 269.116 209.3 253.222M267.1 253.222C267.1 237.329 254.161 224.444 238.2 224.444C222.239 224.444 209.3 237.329 209.3 253.222M108.15 253.222C108.15 269.116 95.211 282 79.25 282C63.289 282 50.35 269.116 50.35 253.222C50.35 252.618 50.3687 252.018 50.4056 251.423M108.15 253.222C108.15 237.329 95.211 224.444 79.25 224.444C63.8957 224.444 51.3381 236.368 50.4056 251.423" stroke="#022A1E" stroke-width="7"/>
</svg>
