<svg width="338" height="338" viewBox="0 0 338 338" fill="none" xmlns="http://www.w3.org/2000/svg">
<path d="M255.503 210.821C255.503 136.72 178.652 63.6873 146.719 36.539C138.746 29.7602 127.374 29.7602 119.401 36.539C87.4676 63.6873 10.6171 136.72 10.6171 210.821C10.6171 270.341 56.9838 331.563 133.06 331.563C209.136 331.563 255.503 270.341 255.503 210.821Z" fill="#DEF54C"/>
<path d="M327 191.365C327 117.265 250.15 44.2319 218.217 17.0836C210.243 10.3048 198.871 10.3048 190.898 17.0836C158.965 44.2319 82.1142 117.265 82.1142 191.365C82.1142 250.886 128.481 312.107 204.557 312.107C280.633 312.107 327 250.886 327 191.365Z" fill="white" stroke="#022A1E" stroke-width="8"/>
<path d="M129.926 204.971C136.142 233.11 157.313 258.524 189.245 264.744" stroke="#022A1E" stroke-width="8" stroke-linecap="round"/>
</svg>
