<svg width="338" height="338" viewBox="0 0 338 338" fill="none" xmlns="http://www.w3.org/2000/svg">
<path d="M23 258.484V159.746C23 144.449 29.8169 129.961 41.5674 120.286L104.728 68.2772C123.328 52.9613 150.049 52.9613 168.649 68.2772L231.81 120.286C243.56 129.961 250.377 144.449 250.377 159.746V258.484C250.377 286.622 227.755 309.431 199.849 309.431H73.5282C45.6223 309.431 23 286.622 23 258.484Z" fill="#DEF54C"/>
<path d="M83.1358 221.694V122.955C83.1358 107.658 89.9526 93.1711 101.703 83.4953L164.863 31.4869C183.463 16.171 210.185 16.171 228.785 31.4869L291.945 83.4953C303.696 93.1711 310.513 107.658 310.513 122.955V221.694C310.513 249.831 287.89 272.641 259.984 272.641H133.664C105.758 272.641 83.1358 249.831 83.1358 221.694Z" fill="white"/>
<path d="M192.916 142.413L196.824 146.321L200.732 142.413C211.523 131.621 229.019 131.621 239.81 142.413C250.602 153.204 250.602 170.7 239.81 181.491L212.456 208.846C203.823 217.479 189.826 217.479 181.193 208.846L153.838 181.491C143.047 170.7 143.047 153.204 153.838 142.413C164.629 131.621 182.125 131.621 192.916 142.413Z" fill="white"/>
<path d="M291.945 83.4953L294.488 80.4074L294.488 80.4074L291.945 83.4953ZM228.785 31.4869L231.328 28.3991L231.328 28.3991L228.785 31.4869ZM164.863 31.4869L167.406 34.5748L167.406 34.5748L164.863 31.4869ZM101.703 83.4953L104.246 86.5832L104.246 86.5832L101.703 83.4953ZM196.824 146.321L199.653 149.149C198.091 150.711 195.558 150.711 193.996 149.149L196.824 146.321ZM192.916 142.413L190.088 145.241L190.088 145.241L192.916 142.413ZM200.732 142.413L203.56 145.241L203.56 145.241L200.732 142.413ZM239.81 181.491L242.639 184.32L242.639 184.32L239.81 181.491ZM212.456 208.846L209.627 206.018L209.627 206.018L212.456 208.846ZM181.193 208.846L184.021 206.018L184.021 206.018L181.193 208.846ZM153.838 181.491L151.01 184.32L151.01 184.32L153.838 181.491ZM239.81 142.413L242.639 139.584L242.639 139.584L239.81 142.413ZM87.1358 122.955V221.694H79.1358V122.955H87.1358ZM133.664 268.641H259.984V276.641H133.664V268.641ZM306.513 221.694V122.955H314.513V221.694H306.513ZM289.403 86.5832L226.242 34.5748L231.328 28.3991L294.488 80.4074L289.403 86.5832ZM167.406 34.5748L104.246 86.5832L99.1605 80.4074L162.321 28.399L167.406 34.5748ZM226.242 34.5748C209.119 20.4751 184.529 20.4751 167.406 34.5748L162.321 28.399C182.398 11.867 211.251 11.867 231.328 28.3991L226.242 34.5748ZM259.984 268.641C285.65 268.641 306.513 247.653 306.513 221.694H314.513C314.513 252.009 290.131 276.641 259.984 276.641V268.641ZM87.1358 221.694C87.1358 247.653 107.998 268.641 133.664 268.641V276.641C103.518 276.641 79.1358 252.009 79.1358 221.694H87.1358ZM79.1358 122.955C79.1358 106.47 86.4819 90.8474 99.1605 80.4074L104.246 86.5832C93.4233 95.4948 87.1358 108.847 87.1358 122.955H79.1358ZM306.513 122.955C306.513 108.847 300.225 95.4948 289.403 86.5832L294.488 80.4074C307.167 90.8475 314.513 106.47 314.513 122.955H306.513ZM193.996 149.149L190.088 145.241L195.745 139.584L199.653 143.492L193.996 149.149ZM203.56 145.241L199.653 149.149L193.996 143.492L197.904 139.584L203.56 145.241ZM242.639 184.32L215.284 211.674L209.627 206.018L236.982 178.663L242.639 184.32ZM178.364 211.674L151.01 184.32L156.666 178.663L184.021 206.018L178.364 211.674ZM156.666 145.241C147.437 154.47 147.437 169.434 156.666 178.663L151.01 184.32C138.656 171.966 138.656 151.938 151.01 139.584L156.666 145.241ZM151.01 139.584C163.363 127.231 183.392 127.231 195.745 139.584L190.088 145.241C180.859 136.012 165.896 136.012 156.666 145.241L151.01 139.584ZM236.982 145.241C227.753 136.012 212.79 136.012 203.56 145.241L197.904 139.584C210.257 127.231 230.286 127.231 242.639 139.584L236.982 145.241ZM215.284 211.674C205.089 221.869 188.56 221.869 178.364 211.674L184.021 206.018C191.092 213.088 202.556 213.088 209.627 206.018L215.284 211.674ZM242.639 139.584C254.992 151.938 254.992 171.966 242.639 184.32L236.982 178.663C246.211 169.434 246.211 154.47 236.982 145.241L242.639 139.584Z" fill="#022A1E"/>
</svg>
