<svg width="338" height="338" viewBox="0 0 338 338" fill="none" xmlns="http://www.w3.org/2000/svg">
<g clip-path="url(#clip0_136_98)">
<path d="M144.095 18.5076L282.304 79.7531C283.327 80.2066 283.987 81.2559 283.984 82.3751C283.587 221.485 251.929 263.627 144.446 329.579C143.542 330.133 142.356 330.134 141.452 329.581C33.1226 263.357 3.35941 220.01 1.92978 82.3899C1.91806 81.2629 2.57892 80.2035 3.60938 79.7469L141.804 18.5076C142.534 18.1843 143.366 18.1843 144.095 18.5076Z" fill="#DEF54C"/>
<path d="M209.432 16.9684L322.92 67.389C330.873 70.9221 336.026 78.8455 335.867 87.546C333.679 207.366 304.042 248.781 211.963 306.874C204.974 311.284 196.02 311.293 189.028 306.889C96.3564 248.515 68.2247 206.145 65.2391 87.6667C65.0183 78.9069 70.1809 70.8982 78.1888 67.3405L191.568 16.9684C197.255 14.4419 203.745 14.4419 209.432 16.9684Z" fill="white" stroke="#022A1E" stroke-width="8"/>
<path d="M193.773 182.298L191.274 185.421L193.773 182.298ZM156.514 157.613L191.274 185.421L196.272 179.174L161.511 151.366L156.514 157.613ZM200.677 184.586L250.517 127.626L244.497 122.358L194.656 179.318L200.677 184.586ZM191.274 185.421C194.127 187.704 198.271 187.336 200.677 184.586L194.656 179.318C195.07 178.846 195.782 178.782 196.272 179.174L191.274 185.421Z" fill="#022A1E"/>
</g>
<defs>
<clipPath id="clip0_136_98">
<rect width="338" height="338" fill="white" transform="matrix(-1 0 0 1 338 0)"/>
</clipPath>
</defs>
</svg>
