<svg width="338" height="338" viewBox="0 0 338 338" fill="none" xmlns="http://www.w3.org/2000/svg">
<path fill-rule="evenodd" clip-rule="evenodd" d="M205.8 325.379C253.875 325.379 334 237.036 334 167.108C334 97.1789 276.603 40.4905 205.8 40.4905C134.997 40.4905 77.6003 97.1789 77.6003 167.108C77.6003 237.036 157.725 325.379 205.8 325.379ZM205.8 211.424C229.401 211.424 248.533 192.291 248.533 168.69C248.533 145.089 229.401 125.957 205.8 125.957C182.199 125.957 163.067 145.089 163.067 168.69C163.067 192.291 182.199 211.424 205.8 211.424Z" fill="#DEF54C"/>
<path d="M260.4 138.617C260.4 208.546 180.275 296.889 132.2 296.889C84.1249 296.889 4 208.546 4 138.617C4 68.6884 61.397 12 132.2 12C203.003 12 260.4 68.6884 260.4 138.617Z" fill="white" stroke="#022A1E" stroke-width="8"/>
<circle cx="132.2" cy="140.199" r="42.7333" fill="white" stroke="#022A1E" stroke-width="8"/>
</svg>
