<svg width="338" height="338" viewBox="0 0 338 338" fill="none" xmlns="http://www.w3.org/2000/svg">
<path fill-rule="evenodd" clip-rule="evenodd" d="M63.9189 129.635C63.9189 100.466 87.5655 76.8191 116.735 76.8191H275.183C304.353 76.8191 327.999 100.466 327.999 129.635V149.441H275.183C249.66 149.441 228.969 170.132 228.969 195.655C228.969 221.179 249.66 241.869 275.183 241.869H327.999V261.675C327.999 290.845 304.353 314.492 275.183 314.492H116.735C87.5655 314.492 63.9189 290.845 63.9189 261.675V129.635ZM327.999 222.063V169.247H275.183C260.598 169.247 248.775 181.07 248.775 195.655C248.775 210.24 260.598 222.063 275.183 222.063H327.999Z" fill="#DEF54C"/>
<path d="M10 76.816C10 47.6465 33.6466 23.9999 62.8161 23.9999H221.264C250.434 23.9999 274.081 47.6465 274.081 76.816V208.856C274.081 238.026 250.434 261.672 221.264 261.672H62.8161C33.6466 261.672 10 238.026 10 208.856V76.816Z" fill="white" stroke="#022A1E" stroke-width="7" stroke-linejoin="round"/>
<path d="M274.081 103.224L274.081 182.448H221.264C199.387 182.448 181.652 164.713 181.652 142.836C181.652 120.959 199.387 103.224 221.264 103.224L274.081 103.224Z" stroke="#022A1E" stroke-width="7" stroke-linejoin="round"/>
</svg>
