<svg width="338" height="338" viewBox="0 0 338 338" fill="none" xmlns="http://www.w3.org/2000/svg">
<path d="M45.0918 295.84C34.0461 295.84 25.0918 286.885 25.0918 275.84V165.312C25.0918 104.054 66.8071 60.8165 127.129 58.721V87.6152C86.1202 100.334 80.7484 135.675 80.7484 165.312V169.95H164.233V275.84C164.233 286.885 155.279 295.84 144.233 295.84H45.0918Z" fill="#DEF54C"/>
<path d="M211.525 295.84C200.48 295.84 191.525 286.885 191.525 275.84V165.312C191.525 104.054 233.241 60.8165 293.563 58.7209V87.6152C252.554 100.334 247.182 135.675 247.182 165.312V169.95H330.667V275.84C330.667 286.885 321.713 295.84 310.667 295.84H211.525Z" fill="#DEF54C"/>
<path d="M103.96 42V39.4116L101.373 39.5015C72.6631 40.4989 48.246 51.3013 31.0045 69.2716C13.7636 87.2411 3.83398 112.235 3.83398 141.371V243.058C3.83398 255.485 13.9076 265.558 26.334 265.558H116.051C128.478 265.558 138.551 255.485 138.551 243.058V145.695V143.195H136.051H60.7209V141.371C60.7209 127.653 61.9758 112.951 67.7769 100.28C73.519 87.7381 83.7807 77.0377 102.201 71.325L103.96 70.7793V68.9372V42Z" fill="white" stroke="#022A1E" stroke-width="5"/>
<path d="M266.355 42V39.4117L263.768 39.5015C235.058 40.4989 210.641 51.3014 193.399 69.2716C176.158 87.2411 166.229 112.235 166.229 141.371V243.058C166.229 255.485 176.302 265.558 188.729 265.558H278.446C290.872 265.558 300.946 255.485 300.946 243.058V145.695V143.195H298.446H223.115V141.371C223.115 127.653 224.37 112.951 230.171 100.28C235.914 87.7381 246.175 77.0377 264.595 71.325L266.355 70.7793V68.9372V42Z" fill="white" stroke="#022A1E" stroke-width="5"/>
</svg>
