<svg width="215" height="230" viewBox="0 0 215 230" fill="none" xmlns="http://www.w3.org/2000/svg">
<path d="M214.559 106.812C214.559 165.803 166.737 213.625 107.746 213.625C48.7552 213.625 0.933594 165.803 0.933594 106.812C0.933594 47.8216 48.7552 0 107.746 0C166.737 0 214.559 47.8216 214.559 106.812Z" fill="#DEF54C"/>
<path d="M72.2991 180.065V168.342L142.715 56.047H151.353V75.714H144.951L88.4183 166.105V167.108H180.738V180.065H72.2991ZM146.031 214V176.363V170.964V56.047H159.759V214H146.031Z" fill="white"/>
<path d="M46.8992 182.065V170.342L117.315 58.047H125.953V77.714H119.551L63.0184 168.105V169.108H155.338V182.065H46.8992ZM120.631 216V178.363V172.964V58.047H134.36V216H120.631Z" fill="#022A1E"/>
</svg>
