<svg width="338" height="338" viewBox="0 0 338 338" fill="none" xmlns="http://www.w3.org/2000/svg">
<g clip-path="url(#clip0_58_575)">
<path d="M218.727 87.8482L208.818 98.4936L198.909 87.8482C171.548 58.4517 127.185 58.4516 99.8232 87.8482C72.4613 117.245 72.4613 164.906 99.8232 194.302L189.001 290.111C199.946 301.87 217.691 301.87 228.635 290.111L317.813 194.302C345.175 164.906 345.175 117.245 317.813 87.8482C290.451 58.4517 246.089 58.4516 218.727 87.8482Z" fill="#DEF54C"/>
<path d="M143.425 70.0474L133.516 80.6928L123.608 70.0474C96.2458 40.6509 51.8834 40.6509 24.5214 70.0474C-2.84047 99.4439 -2.84049 147.105 24.5214 176.502L113.699 272.31C124.644 284.069 142.389 284.069 153.334 272.31L242.511 176.502C269.873 147.105 269.873 99.4439 242.511 70.0474C215.149 40.6509 170.787 40.6509 143.425 70.0474Z" fill="white" stroke="#022A1E" stroke-width="8" stroke-linejoin="round"/>
</g>
<defs>
<clipPath id="clip0_58_575">
<rect width="338" height="338" fill="white"/>
</clipPath>
</defs>
</svg>
