<svg width="338" height="338" viewBox="0 0 338 338" fill="none" xmlns="http://www.w3.org/2000/svg">
<g clip-path="url(#clip0_66_12)">
<path fill-rule="evenodd" clip-rule="evenodd" d="M243.6 187.9H268.604C272.759 174.657 275.2 161.362 275.2 148.4C275.2 61.139 225.683 22 164.6 22C103.517 22 54 61.139 54 148.4C54 200.241 93.0354 257.403 124.725 295.267C141.208 314.962 167.499 319.332 188.335 308.378C188.312 307.721 188.3 307.062 188.3 306.4V243.2C188.3 212.659 213.059 187.9 243.6 187.9ZM164.6 148.4C182.052 148.4 196.2 134.252 196.2 116.8C196.2 99.3478 182.052 85.2 164.6 85.2C147.148 85.2 133 99.3478 133 116.8C133 134.252 147.148 148.4 164.6 148.4ZM212 243.2C212 225.748 226.148 211.6 243.6 211.6H259.426H306.8C324.252 211.6 338.4 225.748 338.4 243.2V306.4C338.4 323.852 324.252 338 306.8 338H243.6C226.148 338 212 323.852 212 306.4V286.07V243.2ZM302.85 243.2C302.85 249.745 297.544 255.05 291 255.05H259.4C252.855 255.05 247.55 249.745 247.55 243.2C247.55 236.655 252.855 231.35 259.4 231.35H291C297.544 231.35 302.85 236.655 302.85 243.2Z" fill="#DEF54C"/>
<path d="M159 228C159 211.431 172.431 198 189 198H204.024H249C265.569 198 279 211.431 279 228V288C279 304.569 265.569 318 249 318H189C172.431 318 159 304.569 159 288V268.699V228Z" fill="white"/>
<path d="M159 228C159 211.431 172.431 198 189 198H204.024C213.068 178.189 219 157.69 219 138C219 55.1573 171.99 18 114 18C56.0101 18 9 55.1573 9 138C9 187.216 46.0589 241.484 76.1441 277.431C96.2547 301.46 131.745 301.46 151.856 277.431C154.202 274.628 156.59 271.714 159 268.699V228Z" fill="white"/>
<path d="M204.024 198C213.068 178.189 219 157.69 219 138C219 55.1573 171.99 18 114 18C56.0101 18 9 55.1573 9 138C9 187.216 46.0589 241.484 76.1441 277.431C96.2547 301.46 131.745 301.46 151.856 277.431C154.202 274.628 156.59 271.714 159 268.699M204.024 198H189C172.431 198 159 211.431 159 228V268.699M204.024 198H249C265.569 198 279 211.431 279 228V288C279 304.569 265.569 318 249 318H189C172.431 318 159 304.569 159 288V268.699" stroke="#022A1E" stroke-width="8"/>
<circle cx="113.999" cy="108" r="30" fill="white" stroke="#022A1E" stroke-width="8"/>
<path d="M234 228L204 228" stroke="#022A1E" stroke-width="8" stroke-linecap="round" stroke-linejoin="round"/>
</g>
<defs>
<clipPath id="clip0_66_12">
<rect width="338" height="338" fill="white"/>
</clipPath>
</defs>
</svg>
