<svg width="338" height="338" viewBox="0 0 338 338" fill="none" xmlns="http://www.w3.org/2000/svg">
<path d="M233.872 173.626L126.535 29.7433C115.961 15.5695 94.2756 23.4134 94.2756 41.4117V128.496C94.2756 138.952 86.1956 147.429 76.2284 147.429H41.0805C26.0374 147.429 17.597 165.602 26.8682 178.03L134.205 321.912C144.779 336.086 166.464 328.242 166.464 310.244V223.16C166.464 212.703 174.544 204.227 184.512 204.227H219.66C234.703 204.227 243.143 186.054 233.872 173.626Z" fill="#DEF54C"/>
<path d="M306.131 160.182L198.793 16.5024C188.22 2.34859 166.534 10.1814 166.534 28.1543V115.116C166.534 125.557 158.454 134.022 148.486 134.022H113.338C98.2946 134.022 89.8541 152.17 99.1254 164.58L206.463 308.26C217.037 322.413 238.723 314.581 238.723 296.608V209.646C238.723 199.205 246.803 190.74 256.771 190.74H291.919C306.962 190.74 315.403 172.592 306.131 160.182Z" fill="white"/>
<path d="M198.793 16.5024L201.998 14.1084L201.998 14.1084L198.793 16.5024ZM306.131 160.182L309.336 157.788L309.336 157.788L306.131 160.182ZM206.463 308.26L209.668 305.866L209.668 305.866L206.463 308.26ZM99.1254 164.58L102.33 162.186L102.33 162.186L99.1254 164.58ZM201.998 14.1084L309.336 157.788L302.927 162.576L195.589 18.8964L201.998 14.1084ZM291.919 194.74H256.771V186.74H291.919V194.74ZM242.723 209.646V296.608H234.723V209.646H242.723ZM203.259 310.653L95.9209 166.974L102.33 162.186L209.668 305.866L203.259 310.653ZM113.338 130.022H148.486V138.022H113.338V130.022ZM162.534 115.116V28.1543H170.534V115.116H162.534ZM148.486 130.022C156.071 130.022 162.534 123.525 162.534 115.116H170.534C170.534 127.589 160.836 138.022 148.486 138.022V130.022ZM95.9209 166.974C84.8888 152.207 94.6563 130.022 113.338 130.022V138.022C101.933 138.022 94.8194 152.133 102.33 162.186L95.9209 166.974ZM242.723 296.608C242.723 307.369 236.16 315.266 227.917 318.243C219.651 321.229 209.682 319.251 203.259 310.653L209.668 305.866C213.819 311.421 219.98 312.604 225.2 310.719C230.444 308.825 234.723 303.819 234.723 296.608H242.723ZM256.771 194.74C249.186 194.74 242.723 201.236 242.723 209.646H234.723C234.723 197.173 244.421 186.74 256.771 186.74V194.74ZM309.336 157.788C320.368 172.555 310.601 194.74 291.919 194.74V186.74C303.324 186.74 310.437 172.629 302.927 162.576L309.336 157.788ZM195.589 18.8964C191.438 13.3405 185.277 12.1576 180.057 14.043C174.813 15.9371 170.534 20.9426 170.534 28.1543H162.534C162.534 17.3931 169.097 9.49575 177.34 6.51871C185.606 3.53288 195.575 5.51043 201.998 14.1084L195.589 18.8964Z" fill="#022A1E"/>
</svg>
