<svg width="338" height="338" viewBox="0 0 338 338" fill="none" xmlns="http://www.w3.org/2000/svg">
<path d="M86.1282 173.415L193.465 29.5323C204.039 15.3585 225.724 23.2024 225.724 41.2007V128.285C225.724 138.741 233.804 147.218 243.772 147.218H278.92C293.963 147.218 302.403 165.391 293.132 177.819L185.795 321.701C175.221 335.875 153.536 328.031 153.536 310.033V222.949C153.536 212.492 145.456 204.016 135.488 204.016H100.34C85.2974 204.016 76.8571 185.843 86.1282 173.415Z" fill="#DEF54C"/>
<path d="M151.207 16.2913L148.803 14.4958L148.803 14.4958L151.207 16.2913ZM43.8685 159.971L41.4651 158.175L41.4651 158.175L43.8685 159.971ZM143.537 308.048L141.133 306.253L141.133 306.253L143.537 308.048ZM250.875 164.369L248.471 162.573L248.471 162.573L250.875 164.369ZM148.803 14.4958L41.4651 158.175L46.2719 161.766L153.61 18.0867L148.803 14.4958ZM58.0809 193.529H93.2293V187.529H58.0809V193.529ZM108.277 209.435V296.396H114.277V209.435H108.277ZM145.94 309.844L253.278 166.164L248.471 162.573L141.133 306.253L145.94 309.844ZM236.662 130.811H201.514V136.811H236.662V130.811ZM186.466 114.905V27.9432H180.466V114.905H186.466ZM201.514 130.811C193.333 130.811 186.466 123.822 186.466 114.905H180.466C180.466 126.87 189.76 136.811 201.514 136.811V130.811ZM253.278 166.164C263.87 151.986 254.434 130.811 236.662 130.811V136.811C248.977 136.811 256.422 151.931 248.471 162.573L253.278 166.164ZM108.277 296.396C108.277 306.714 114.555 314.25 122.422 317.092C130.308 319.94 139.801 318.062 145.94 309.844L141.133 306.253C136.699 312.189 130.061 313.471 124.461 311.448C118.842 309.419 114.277 304.052 114.277 296.396H108.277ZM93.2293 193.529C101.41 193.529 108.277 200.517 108.277 209.435H114.277C114.277 197.47 104.983 187.529 93.2293 187.529V193.529ZM41.4651 158.175C30.8733 172.353 40.309 193.529 58.0809 193.529V187.529C45.7664 187.529 38.3212 172.409 46.2719 161.766L41.4651 158.175ZM153.61 18.0867C158.045 12.1507 164.682 10.8684 170.282 12.8913C175.901 14.9208 180.466 20.2878 180.466 27.9432H186.466C186.466 17.6257 180.188 10.0898 172.321 7.24812C164.435 4.39985 154.942 6.27807 148.803 14.4958L153.61 18.0867Z" fill="#022A1E"/>
</svg>
