<svg width="338" height="338" viewBox="0 0 338 338" fill="none" xmlns="http://www.w3.org/2000/svg">
<path d="M67.4966 210.821C67.4966 136.72 144.347 63.6872 176.28 36.539C184.254 29.7601 195.625 29.7601 203.599 36.539C235.532 63.6872 312.382 136.72 312.382 210.821C312.382 270.341 266.016 331.563 189.939 331.563C113.863 331.563 67.4966 270.341 67.4966 210.821Z" fill="#DEF54C"/>
<path d="M26 191.365C26 117.265 102.85 44.2318 134.783 17.0836C142.757 10.3047 154.129 10.3047 162.102 17.0836C194.035 44.2318 270.886 117.265 270.886 191.365C270.886 250.886 224.519 312.107 148.443 312.107C72.3666 312.107 26 250.886 26 191.365Z" stroke="#022A1E" stroke-width="6"/>
<path d="M223.074 204.971C216.858 233.11 195.687 258.523 163.755 264.744" stroke="#022A1E" stroke-width="6" stroke-linecap="round"/>
</svg>
