<svg width="338" height="338" viewBox="0 0 338 338" fill="none" xmlns="http://www.w3.org/2000/svg">
<path d="M305.762 260.002V80.4854C305.762 79.0171 304.699 77.7645 303.25 77.5254L186.836 58.3119C186.469 58.2511 186.093 58.2595 185.728 58.3367L76.1418 81.497C74.7546 81.7902 73.7621 83.0144 73.7621 84.4322V260.002C73.7621 273.809 84.955 285.002 98.7621 285.002H280.762C294.569 285.002 305.762 273.809 305.762 260.002Z" fill="#DEF54C"/>
<path d="M189.757 53H295.069C300.045 53 304.656 55.6723 307.217 60.0398L332.716 103.54C338.382 113.204 331.58 125.5 320.569 125.5H248.299C238.347 125.5 229.124 120.155 224.004 111.42L189.757 53Z" fill="#DEF54C"/>
<path d="M189.76 53H84.4481C79.472 53 74.8606 55.6723 72.3004 60.0398L46.8006 103.54C41.1352 113.204 47.9367 125.5 58.9483 125.5H131.218C141.17 125.5 150.393 120.155 155.514 111.42L189.76 53Z" fill="#DEF54C"/>
<path d="M32.0022 125.502V269.002C32.0022 277.839 39.1657 285.002 48.0022 285.002H248.002C256.838 285.002 264.002 277.839 264.002 269.002V125.502" stroke="#022A1E" stroke-width="5"/>
<path d="M147.998 53V50.5H143.634L145.841 54.2643L147.998 53ZM182.244 111.42L180.087 112.685L180.087 112.685L182.244 111.42ZM290.957 103.54L288.8 104.804L288.8 104.804L290.957 103.54ZM265.457 60.0398L267.614 58.7755L267.614 58.7755L265.457 60.0398ZM147.998 55.5H253.309V50.5H147.998V55.5ZM263.3 61.3041L288.8 104.804L293.113 102.275L267.614 58.7755L263.3 61.3041ZM278.809 123H206.539V128H278.809V123ZM184.4 110.156L150.154 51.7357L145.841 54.2643L180.087 112.685L184.4 110.156ZM206.539 123C197.493 123 189.082 118.142 184.4 110.156L180.087 112.685C185.647 122.169 195.681 128 206.539 128V123ZM288.8 104.804C293.539 112.889 287.788 123 278.809 123V128C291.853 128 299.705 113.519 293.113 102.275L288.8 104.804ZM253.309 55.5C257.379 55.5 261.179 57.6857 263.3 61.3041L267.614 58.7755C264.614 53.659 259.191 50.5 253.309 50.5V55.5Z" fill="#022A1E"/>
<path d="M148 53L150.157 54.2643L152.363 50.5H148V53ZM113.754 111.42L115.91 112.685L115.91 112.685L113.754 111.42ZM5.04072 103.54L2.88397 102.275L5.04072 103.54ZM30.5405 60.0398L28.3838 58.7755L28.3838 58.7755L30.5405 60.0398ZM148 50.5H42.6883V55.5H148V50.5ZM28.3838 58.7755L2.88397 102.275L7.19747 104.804L32.6973 61.3041L28.3838 58.7755ZM17.1884 128H89.4582V123H17.1884V128ZM115.91 112.685L150.157 54.2643L145.843 51.7357L111.597 110.156L115.91 112.685ZM89.4582 128C100.317 128 110.351 122.169 115.91 112.685L111.597 110.156C106.916 118.142 98.5044 123 89.4582 123V128ZM2.88397 102.275C-3.70728 113.519 4.14473 128 17.1884 128V123C8.20896 123 2.45788 112.889 7.19747 104.804L2.88397 102.275ZM42.6883 50.5C36.806 50.5 31.3831 53.659 28.3838 58.7755L32.6973 61.3041C34.8184 57.6857 38.6182 55.5 42.6883 55.5V50.5Z" fill="#022A1E"/>
</svg>
