<svg width="338" height="338" viewBox="0 0 338 338" fill="none" xmlns="http://www.w3.org/2000/svg">
<path d="M190.905 19.413L52.696 80.6585C51.6727 81.1119 51.013 82.1613 51.0162 83.2805C51.413 222.391 83.0707 264.533 190.554 330.484C191.458 331.038 192.644 331.039 193.548 330.486C301.877 264.262 331.641 220.915 333.07 83.2953C333.082 82.1683 332.421 81.1089 331.391 80.6523L193.196 19.413C192.466 19.0897 191.634 19.0897 190.905 19.413Z" fill="#DEF54C"/>
<path d="M127.253 181.298L125.244 183.809L127.253 181.298ZM90.4836 156.001L125.244 183.809L129.262 178.787L94.5017 150.979L90.4836 156.001ZM133.567 183.07L183.407 126.11L178.567 121.874L128.726 178.834L133.567 183.07ZM125.244 183.809C127.769 185.83 131.437 185.504 133.567 183.07L128.726 178.834C128.863 178.678 129.099 178.657 129.262 178.787L125.244 183.809Z" fill="#022A1E"/>
<path d="M135.593 6.51032L5.68051 64.2493C4.65874 64.7034 4.00024 65.7515 4.00355 66.8697C4.39216 198.062 34.1807 237.853 135.243 300.06C136.147 300.617 137.337 300.617 138.242 300.062C240.098 237.597 268.106 196.671 269.465 66.8844C269.477 65.7585 268.817 64.7003 267.788 64.243L137.89 6.51033C137.159 6.18543 136.324 6.18543 135.593 6.51032Z" stroke="#022A1E" stroke-width="6.43216"/>
</svg>
