<svg width="338" height="338" viewBox="0 0 338 338" fill="none" xmlns="http://www.w3.org/2000/svg">
<path d="M177.971 65.9537H206.248C276.522 65.9537 333.491 118.792 333.491 183.971V249.537C333.491 278.505 308.172 301.989 276.938 301.989H177.971C107.697 301.989 50.7278 249.151 50.7278 183.971C50.7278 118.792 107.697 65.9537 177.971 65.9537Z" fill="#DEF54C"/>
<path d="M137.627 36H113.331C52.9492 36 4 84.9492 4 145.331V206.071C4 232.907 25.7552 254.662 52.5916 254.662H137.627C198.009 254.662 246.958 205.713 246.958 145.331C246.958 84.9492 198.009 36 137.627 36Z" stroke="#022A1E" stroke-width="6"/>
</svg>
