<svg width="338" height="338" viewBox="0 0 338 338" fill="none" xmlns="http://www.w3.org/2000/svg">
<path d="M48.8012 295.416V269.549C48.8012 256.696 56.6262 245.138 68.5595 240.365L100.528 227.578C115.706 221.507 133.004 228.083 140.314 242.705L143.096 248.268C143.096 248.268 182.386 240.411 213.818 208.979C245.249 177.547 253.107 138.257 253.107 138.257L247.544 135.476C232.922 128.165 226.345 110.867 232.417 95.6889L245.204 63.7207C249.977 51.7874 261.535 43.9624 274.388 43.9624H300.255C317.614 43.9624 331.687 58.0349 331.687 75.3941C331.687 214.268 219.107 326.848 80.2329 326.848C62.8737 326.848 48.8012 312.775 48.8012 295.416Z" fill="#DEF54C"/>
<path d="M95.5465 203.85L96.1349 206.792C94.8083 207.057 93.4683 206.401 92.8633 205.191L95.5465 203.85ZM198.85 100.546L200.192 97.8628C201.402 98.4678 202.057 99.8078 201.792 101.134L198.85 100.546ZM193.626 97.9338L192.284 100.617L192.284 100.617L193.626 97.9338ZM179.421 60.5728L176.636 59.4586L176.636 59.4586L179.421 60.5728ZM191.429 30.5536L194.214 31.6678L194.214 31.6678L191.429 30.5536ZM25.5541 196.428L26.6683 199.214L26.6683 199.214L25.5541 196.428ZM55.5732 184.421L54.4591 181.635L54.4591 181.635L55.5732 184.421ZM92.9343 198.625L90.251 199.967L90.251 199.967L92.9343 198.625ZM69.0312 130.061C69.0312 131.718 67.688 133.061 66.0312 133.061C64.3743 133.061 63.0312 131.718 63.0312 130.061H69.0312ZM70.5246 107.471L67.753 106.323L67.753 106.323L70.5246 107.471ZM102.472 75.5242L101.324 72.7525L101.324 72.7525L102.472 75.5242ZM125.062 68.0307C126.719 68.0307 128.062 69.3739 128.062 71.0307C128.062 72.6876 126.719 74.0307 125.062 74.0307V68.0307ZM10.0005 130.061C10.0005 131.718 8.65734 133.061 7.00048 133.061C5.34363 133.061 4.00048 131.718 4.00048 130.061H10.0005ZM15.9874 84.8813L13.2157 83.7332L13.2157 83.7332L15.9874 84.8813ZM79.8817 20.9869L78.7337 18.2153L78.7337 18.2153L79.8817 20.9869ZM125.062 9C126.719 9 128.062 10.3431 128.062 12C128.062 13.6569 126.719 15 125.062 15V9ZM10.0005 223.833V248.123H4.00048V223.833H10.0005ZM243.123 15H218.833V9H243.123V15ZM95.5465 203.85C94.9582 200.908 94.9575 200.908 94.9569 200.908C94.9568 200.908 94.9564 200.908 94.9563 200.908C94.9563 200.908 94.9568 200.908 94.9578 200.908C94.9599 200.908 94.9643 200.907 94.9708 200.905C94.9839 200.903 95.0057 200.898 95.0362 200.892C95.0972 200.879 95.1927 200.859 95.3213 200.83C95.5787 200.773 95.9686 200.685 96.4804 200.56C97.5042 200.311 99.0147 199.92 100.926 199.358C104.75 198.233 110.17 196.427 116.501 193.714C129.178 188.281 145.423 179.246 159.835 164.834L164.077 169.077C148.974 184.18 132.014 193.593 118.865 199.228C112.283 202.049 106.635 203.933 102.619 205.114C100.61 205.705 99.0077 206.12 97.8985 206.39C97.3439 206.525 96.9124 206.623 96.6149 206.689C96.4661 206.722 96.3508 206.747 96.2704 206.764C96.2302 206.772 96.1986 206.779 96.176 206.783C96.1647 206.786 96.1556 206.787 96.1487 206.789C96.1453 206.789 96.1424 206.79 96.1401 206.79C96.139 206.791 96.1377 206.791 96.1371 206.791C96.1359 206.791 96.1349 206.792 95.5465 203.85ZM159.835 164.834C174.247 150.422 183.281 134.177 188.714 121.501C191.427 115.17 193.233 109.749 194.358 105.925C194.92 104.014 195.312 102.504 195.561 101.48C195.685 100.968 195.774 100.578 195.831 100.321C195.859 100.192 195.88 100.097 195.892 100.036C195.899 100.005 195.903 99.9834 195.906 99.9703C195.907 99.9638 195.908 99.9595 195.909 99.9573C195.909 99.9563 195.909 99.9558 195.909 99.9559C195.909 99.9559 195.909 99.9564 195.909 99.9564C195.909 99.957 195.909 99.9577 198.85 100.546C201.792 101.134 201.792 101.135 201.792 101.137C201.791 101.137 201.791 101.138 201.791 101.14C201.791 101.142 201.79 101.145 201.789 101.148C201.788 101.155 201.786 101.164 201.784 101.176C201.779 101.198 201.773 101.23 201.764 101.27C201.747 101.35 201.723 101.466 201.69 101.614C201.624 101.912 201.526 102.343 201.391 102.898C201.121 104.007 200.705 105.61 200.114 107.618C198.933 111.635 197.05 117.283 194.229 123.864C188.593 137.014 179.181 153.974 164.077 169.077L159.835 164.834ZM197.509 103.229L192.284 100.617L194.967 95.2506L200.192 97.8628L197.509 103.229ZM176.636 59.4586L188.643 29.4395L194.214 31.6678L182.207 61.6869L176.636 59.4586ZM24.4399 193.643L54.4591 181.635L56.6874 187.206L26.6683 199.214L24.4399 193.643ZM95.6176 197.284L98.2298 202.508L92.8633 205.191L90.251 199.967L95.6176 197.284ZM54.4591 181.635C70.1604 175.355 88.0548 182.158 95.6176 197.284L90.251 199.967C84.0838 187.633 69.4914 182.085 56.6874 187.206L54.4591 181.635ZM192.284 100.617C177.159 93.0543 170.355 75.1599 176.636 59.4586L182.207 61.6869C177.085 74.491 182.633 89.0833 194.967 95.2506L192.284 100.617ZM218.833 15C207.991 15 198.241 21.601 194.214 31.6678L188.643 29.4395C193.581 17.0947 205.537 9 218.833 9V15ZM4.00048 223.833C4.00048 210.537 12.0952 198.581 24.4399 193.643L26.6683 199.214C16.6015 203.24 10.0005 212.99 10.0005 223.833H4.00048ZM36.5158 274.638C165.266 274.638 269.639 170.266 269.639 41.5154H275.639C275.639 173.579 168.58 280.638 36.5158 280.638V274.638ZM36.5158 280.638C18.5581 280.638 4.00048 266.081 4.00048 248.123H10.0005C10.0005 262.767 21.8718 274.638 36.5158 274.638V280.638ZM269.639 41.5154C269.639 26.8713 257.767 15 243.123 15V9C261.081 9 275.639 23.5576 275.639 41.5154H269.639ZM63.0312 130.061C63.0312 121.915 64.6357 113.849 67.753 106.323L73.2963 108.619C70.4805 115.417 69.0312 122.703 69.0312 130.061H63.0312ZM67.753 106.323C70.8703 98.7974 75.4395 91.9592 81.1996 86.1991L85.4422 90.4417C80.2393 95.6447 76.1121 101.821 73.2963 108.619L67.753 106.323ZM81.1996 86.1991C86.9596 80.439 93.7979 75.8699 101.324 72.7525L103.62 78.2958C96.8219 81.1116 90.6451 85.2388 85.4422 90.4417L81.1996 86.1991ZM101.324 72.7525C108.85 69.6352 116.916 68.0307 125.062 68.0307V74.0307C117.704 74.0307 110.418 75.48 103.62 78.2958L101.324 72.7525ZM4.00048 130.061C4.00048 114.163 7.13182 98.4211 13.2157 83.7332L18.759 86.0293C12.9766 99.9892 10.0005 114.951 10.0005 130.061H4.00048ZM13.2157 83.7332C19.2996 69.0454 28.217 55.6997 39.4585 44.4581L43.7012 48.7007C33.0167 59.3851 24.5414 72.0694 18.759 86.0293L13.2157 83.7332ZM39.4585 44.4581C50.7001 33.2165 64.0458 24.2992 78.7337 18.2153L81.0298 23.7585C67.0699 29.5409 54.3856 38.0163 43.7012 48.7007L39.4585 44.4581ZM78.7337 18.2153C93.4215 12.1313 109.164 9 125.062 9V15C109.952 15 94.9897 17.9762 81.0298 23.7585L78.7337 18.2153Z" fill="#022A1E"/>
</svg>
