<svg width="338" height="338" viewBox="0 0 338 338" fill="none" xmlns="http://www.w3.org/2000/svg">
<path d="M45.8012 292.416V266.549C45.8012 253.696 53.6262 242.138 65.5595 237.365L97.5277 224.578C112.706 218.507 130.004 225.083 137.314 239.705L140.096 245.268C140.096 245.268 179.386 237.411 210.818 205.979C242.249 174.547 250.107 135.257 250.107 135.257L244.544 132.476C229.922 125.165 223.345 107.867 229.417 92.6889L242.204 60.7207C246.977 48.7874 258.535 40.9624 271.388 40.9624H297.255C314.614 40.9624 328.687 55.0349 328.687 72.3941C328.687 211.268 216.107 323.848 77.2329 323.848C59.8737 323.848 45.8012 309.775 45.8012 292.416Z" fill="#DEF54C"/>
<path d="M7.00048 248.123V223.833C7.00048 211.764 14.3484 200.911 25.5541 196.428L55.5732 184.421C69.8259 178.72 86.0693 184.895 92.9343 198.625L95.5465 203.85C95.5465 203.85 132.441 196.471 161.956 166.956C191.471 137.44 198.85 100.546 198.85 100.546L193.626 97.934C179.896 91.069 173.72 74.8256 179.421 60.5729L191.429 30.5538C195.911 19.348 206.764 12.0001 218.833 12.0001H243.123C259.424 12.0001 272.639 25.2146 272.639 41.5155C272.639 171.923 166.923 277.638 36.5158 277.638C20.2149 277.638 7.00048 264.424 7.00048 248.123Z" fill="white"/>
<path d="M95.5465 203.85L96.331 207.772C94.5622 208.126 92.7755 207.252 91.9688 205.639L95.5465 203.85ZM198.85 100.546L200.639 96.9685C202.253 97.7752 203.126 99.5619 202.773 101.331L198.85 100.546ZM193.626 97.934L191.837 101.512L191.837 101.512L193.626 97.934ZM179.421 60.5729L175.707 59.0873L175.707 59.0873L179.421 60.5729ZM191.429 30.5538L195.143 32.0393L195.143 32.0393L191.429 30.5538ZM25.5541 196.428L27.0397 200.142L27.0397 200.142L25.5541 196.428ZM55.5732 184.421L54.0877 180.707L54.0877 180.707L55.5732 184.421ZM92.9343 198.625L89.3566 200.414L89.3566 200.414L92.9343 198.625ZM70.0312 130.062C70.0312 132.271 68.2403 134.062 66.0312 134.062C63.8221 134.062 62.0312 132.271 62.0312 130.062H70.0312ZM70.5246 107.471L66.8291 105.941L66.8291 105.941L70.5246 107.471ZM102.472 75.5243L100.941 71.8288L100.941 71.8288L102.472 75.5243ZM125.062 67.0308C127.271 67.0308 129.062 68.8217 129.062 71.0308C129.062 73.24 127.271 75.0308 125.062 75.0308V67.0308ZM11.0005 130.062C11.0005 132.271 9.20962 134.062 7.00048 134.062C4.79135 134.062 3.00048 132.271 3.00048 130.062H11.0005ZM15.9874 84.8814L12.2918 83.3507L12.2918 83.3507L15.9874 84.8814ZM79.8817 20.987L78.351 17.2915L78.351 17.2915L79.8817 20.987ZM125.062 8.00012C127.271 8.00012 129.062 9.79098 129.062 12.0001C129.062 14.2093 127.271 16.0001 125.062 16.0001V8.00012ZM11.0005 223.833V248.123H3.00048V223.833H11.0005ZM243.123 16.0001H218.833V8.00012H243.123V16.0001ZM95.5465 203.85C94.7621 199.928 94.761 199.928 94.7601 199.928C94.76 199.928 94.7593 199.928 94.759 199.928C94.7586 199.928 94.7587 199.928 94.7594 199.928C94.7607 199.928 94.7642 199.927 94.7699 199.926C94.7814 199.924 94.8016 199.919 94.8305 199.913C94.8882 199.901 94.9804 199.882 95.1057 199.854C95.3564 199.799 95.7394 199.711 96.2441 199.589C97.2536 199.343 98.7487 198.956 100.644 198.398C104.436 197.283 109.818 195.49 116.107 192.795C128.705 187.396 144.831 178.424 159.128 164.127L164.785 169.784C149.566 185.003 132.487 194.478 119.259 200.148C112.635 202.986 106.949 204.883 102.901 206.073C100.876 206.669 99.2583 207.089 98.1349 207.362C97.5731 207.499 97.1346 207.599 96.8304 207.666C96.6783 207.699 96.5598 207.725 96.4761 207.742C96.4342 207.751 96.4011 207.758 96.3769 207.763C96.3648 207.765 96.3549 207.767 96.3472 207.769C96.3434 207.77 96.3401 207.77 96.3374 207.771C96.3361 207.771 96.3345 207.772 96.3338 207.772C96.3323 207.772 96.331 207.772 95.5465 203.85ZM159.128 164.127C173.424 149.831 182.396 133.705 187.795 121.107C190.49 114.817 192.283 109.435 193.399 105.643C193.956 103.748 194.343 102.253 194.589 101.244C194.712 100.739 194.799 100.356 194.854 100.105C194.882 99.9801 194.902 99.8879 194.914 99.8301C194.92 99.8013 194.924 99.781 194.926 99.7696C194.928 99.7638 194.928 99.7603 194.929 99.759C194.929 99.7583 194.929 99.7582 194.929 99.7587C194.929 99.7589 194.928 99.7597 194.928 99.7598C194.928 99.7607 194.928 99.7617 198.85 100.546C202.773 101.331 202.772 101.332 202.772 101.333C202.772 101.334 202.772 101.336 202.771 101.337C202.771 101.34 202.77 101.343 202.769 101.347C202.768 101.355 202.766 101.364 202.763 101.377C202.758 101.401 202.751 101.434 202.743 101.476C202.725 101.559 202.7 101.678 202.666 101.83C202.599 102.134 202.499 102.573 202.362 103.135C202.089 104.258 201.669 105.876 201.074 107.901C199.883 111.949 197.987 117.635 195.148 124.258C189.479 137.487 180.003 154.566 164.785 169.784L159.128 164.127ZM197.061 104.124L191.837 101.512L195.415 94.3562L200.639 96.9685L197.061 104.124ZM175.707 59.0873L187.715 29.0682L195.143 32.0393L183.135 62.0585L175.707 59.0873ZM24.0686 192.715L54.0877 180.707L57.0588 188.135L27.0397 200.142L24.0686 192.715ZM96.512 196.837L99.1243 202.061L91.9688 205.639L89.3566 200.414L96.512 196.837ZM54.0877 180.707C70.2719 174.233 88.7167 181.246 96.512 196.837L89.3566 200.414C83.422 188.545 69.3799 183.206 57.0588 188.135L54.0877 180.707ZM191.837 101.512C176.246 93.7163 169.234 75.2716 175.707 59.0873L183.135 62.0585C178.207 74.3796 183.545 88.4216 195.415 94.3562L191.837 101.512ZM218.833 16.0001C208.4 16.0001 199.018 22.3522 195.143 32.0393L187.715 29.0682C192.805 16.3438 205.129 8.00012 218.833 8.00012V16.0001ZM3.00048 223.833C3.00048 210.128 11.3442 197.804 24.0686 192.715L27.0397 200.142C17.3526 204.017 11.0005 213.399 11.0005 223.833H3.00048ZM36.5158 273.638C164.714 273.638 268.639 169.713 268.639 41.5155H276.639C276.639 174.132 169.132 281.638 36.5158 281.638V273.638ZM36.5158 281.638C18.0058 281.638 3.00048 266.633 3.00048 248.123H11.0005C11.0005 262.215 22.4241 273.638 36.5158 273.638V281.638ZM268.639 41.5155C268.639 27.4237 257.215 16.0001 243.123 16.0001V8.00012C261.633 8.00012 276.639 23.0055 276.639 41.5155H268.639ZM62.0312 130.062C62.0312 121.784 63.6615 113.588 66.8291 105.941L74.2202 109.002C71.4546 115.679 70.0312 122.835 70.0312 130.062H62.0312ZM66.8291 105.941C69.9967 98.2935 74.6395 91.345 80.4925 85.4921L86.1493 91.1489C81.0392 96.259 76.9857 102.326 74.2202 109.002L66.8291 105.941ZM80.4925 85.4921C86.3454 79.6392 93.2938 74.9963 100.941 71.8288L104.003 79.2198C97.3259 81.9853 91.2594 86.0389 86.1493 91.1489L80.4925 85.4921ZM100.941 71.8288C108.588 68.6612 116.785 67.0308 125.062 67.0308V75.0308C117.835 75.0308 110.679 76.4542 104.003 79.2198L100.941 71.8288ZM3.00048 130.062C3.00048 114.032 6.15768 98.1598 12.2918 83.3507L19.6829 86.4121C13.9508 100.251 11.0005 115.083 11.0005 130.062H3.00048ZM12.2918 83.3507C18.426 68.5415 27.417 55.0855 38.7514 43.7511L44.4083 49.4079C33.8167 59.9995 25.415 72.5736 19.6829 86.4121L12.2918 83.3507ZM38.7514 43.7511C50.0859 32.4166 63.5418 23.4257 78.351 17.2915L81.4125 24.6825C67.5739 30.4147 54.9999 38.8164 44.4083 49.4079L38.7514 43.7511ZM78.351 17.2915C93.1602 11.1573 109.033 8.00012 125.062 8.00012V16.0001C110.083 16.0001 95.251 18.9504 81.4125 24.6825L78.351 17.2915Z" fill="#022A1E"/>
</svg>
