<svg width="338" height="338" viewBox="0 0 338 338" fill="none" xmlns="http://www.w3.org/2000/svg">
<path d="M296.798 125.689C296.798 159.68 271.533 202.164 243.862 230.527C225.659 249.185 206.416 261.733 192.639 261.733C178.862 261.733 159.619 249.185 141.416 230.527C113.745 202.164 88.48 159.68 88.48 125.689C88.48 69.3374 135.114 23.6555 192.639 23.6555C250.164 23.6555 296.798 69.3374 296.798 125.689Z" fill="#DEF54C"/>
<path fill-rule="evenodd" clip-rule="evenodd" d="M119.065 239.309C82.7131 247.291 58.7212 261.018 58.7212 276.614C58.7212 301.267 118.679 321.253 192.64 321.253C266.601 321.253 326.559 301.267 326.559 276.614C326.559 261.018 302.566 247.291 266.214 239.308C264.109 241.647 261.981 243.917 259.839 246.113C249.835 256.367 239.086 265.432 228.365 272.089C218.146 278.434 205.629 284.053 192.639 284.053C179.65 284.053 167.133 278.434 156.914 272.089C146.193 265.432 135.444 256.367 125.44 246.113C123.298 243.918 121.17 241.647 119.065 239.309Z" fill="#DEF54C"/>
<path d="M138.919 311.598C212.88 311.598 272.837 291.612 272.837 266.958C272.837 247.809 236.664 231.476 185.853 225.137H91.9848C41.1731 231.476 5 247.809 5 266.958C5 291.612 64.9575 311.598 138.919 311.598Z" fill="white"/>
<path d="M185.853 225.137L186.348 221.168L186.101 221.137H185.853V225.137ZM91.9848 225.137V221.137H91.7363L91.4896 221.168L91.9848 225.137ZM268.837 266.958C268.837 271.371 266.158 276.211 259.838 281.192C253.562 286.138 244.233 290.767 232.349 294.728C208.622 302.637 175.589 307.598 138.919 307.598V315.598C176.21 315.598 210.136 310.565 234.878 302.318C247.229 298.201 257.512 293.211 264.789 287.476C272.022 281.776 276.837 274.873 276.837 266.958H268.837ZM138.919 307.598C102.248 307.598 69.2156 302.637 45.4888 294.728C33.6045 290.767 24.2756 286.138 17.9999 281.192C11.6791 276.211 9 271.371 9 266.958H1C1 274.873 5.81555 281.776 13.0481 287.476C20.3257 293.211 30.6088 298.201 42.959 302.318C67.7012 310.565 101.628 315.598 138.919 315.598V307.598ZM185.357 229.106C210.518 232.245 231.812 237.835 246.691 244.861C254.138 248.377 259.785 252.163 263.518 256.019C267.233 259.856 268.837 263.523 268.837 266.958H276.837C276.837 260.819 273.921 255.263 269.265 250.454C264.627 245.663 258.055 241.38 250.107 237.627C234.197 230.114 211.999 224.368 186.348 221.168L185.357 229.106ZM9 266.958C9 263.523 10.6048 259.856 14.3199 256.019C18.052 252.163 23.6991 248.377 31.1459 244.861C46.0255 237.835 67.3196 232.245 92.48 229.106L91.4896 221.168C65.8382 224.368 43.64 230.114 27.7301 237.627C19.7822 241.38 13.2103 245.663 8.57205 250.454C3.91687 255.263 1 260.819 1 266.958H9ZM91.9848 229.137H185.853V221.137H91.9848V229.137Z" fill="#022A1E"/>
<path d="M168.678 118.159C168.678 134.595 155.355 147.919 138.919 147.919C122.483 147.919 109.159 134.595 109.159 118.159C109.159 101.723 122.483 88.3993 138.919 88.3993C155.355 88.3993 168.678 101.723 168.678 118.159Z" fill="white"/>
<path d="M243.078 116.033C243.078 150.024 217.812 192.508 190.142 220.872C171.939 239.53 152.696 252.078 138.919 252.078C125.142 252.078 105.898 239.53 87.6958 220.872C60.0251 192.508 34.7598 150.024 34.7598 116.033C34.7598 59.6819 81.3933 14 138.919 14C196.444 14 243.078 59.6819 243.078 116.033Z" fill="white"/>
<path d="M190.142 220.872L187.279 218.078L190.142 220.872ZM87.6958 220.872L90.559 218.078L87.6958 220.872ZM164.678 118.159C164.678 132.386 153.145 143.919 138.919 143.919V151.919C157.564 151.919 172.678 136.804 172.678 118.159H164.678ZM138.919 143.919C124.692 143.919 113.159 132.386 113.159 118.159H105.159C105.159 136.804 120.274 151.919 138.919 151.919V143.919ZM113.159 118.159C113.159 103.932 124.692 92.3993 138.919 92.3993V84.3993C120.274 84.3993 105.159 99.514 105.159 118.159H113.159ZM138.919 92.3993C153.145 92.3993 164.678 103.932 164.678 118.159H172.678C172.678 99.514 157.564 84.3993 138.919 84.3993V92.3993ZM38.7598 116.033C38.7598 61.9684 83.5243 18 138.919 18V10C79.2624 10 30.7598 57.3954 30.7598 116.033H38.7598ZM138.919 18C194.313 18 239.078 61.9684 239.078 116.033H247.078C247.078 57.3954 198.575 10 138.919 10V18ZM239.078 116.033C239.078 132.122 233.068 150.575 223.453 168.687C213.867 186.747 200.864 204.153 187.279 218.078L193.005 223.665C207.09 209.227 220.555 191.209 230.519 172.438C240.455 153.72 247.078 133.936 247.078 116.033H239.078ZM187.279 218.078C178.339 227.242 169.226 234.817 160.761 240.073C152.205 245.386 144.714 248.078 138.919 248.078V256.078C146.901 256.078 155.919 252.496 164.981 246.87C174.132 241.188 183.742 233.16 193.005 223.665L187.279 218.078ZM138.919 248.078C133.124 248.078 125.632 245.386 117.077 240.073C108.611 234.817 99.4986 227.242 90.559 218.078L84.8326 223.665C94.0957 233.16 103.706 241.188 112.857 246.87C121.918 252.496 130.937 256.078 138.919 256.078V248.078ZM90.559 218.078C76.9738 204.153 63.9708 186.747 54.3844 168.687C44.7699 150.575 38.7598 132.122 38.7598 116.033H30.7598C30.7598 133.936 37.3824 153.72 47.3182 172.438C57.2821 191.209 70.7471 209.227 84.8326 223.665L90.559 218.078Z" fill="#022A1E"/>
</svg>
