<svg width="338" height="338" viewBox="0 0 338 338" fill="none" xmlns="http://www.w3.org/2000/svg">
<path d="M104.128 173.626L211.465 29.7432C222.039 15.5694 243.724 23.4133 243.724 41.4116V128.496C243.724 138.952 251.804 147.429 261.772 147.429H296.92C311.963 147.429 320.403 165.602 311.132 178.03L203.795 321.912C193.221 336.086 171.536 328.242 171.536 310.244V223.16C171.536 212.703 163.456 204.227 153.488 204.227H118.34C103.297 204.227 94.8571 186.053 104.128 173.626Z" fill="#DEF54C"/>
<path d="M31.8685 160.182L139.207 16.5023C149.78 2.34853 171.466 10.1813 171.466 28.1543V115.116C171.466 125.557 179.546 134.022 189.514 134.022H224.662C239.705 134.022 248.146 152.17 238.875 164.58L131.537 308.259C120.963 322.413 99.2767 314.58 99.2767 296.608V209.646C99.2767 199.205 91.1966 190.74 81.2293 190.74H46.0809C31.0377 190.74 22.5972 172.592 31.8685 160.182Z" fill="white"/>
<path d="M139.207 16.5023L136.002 14.1083L136.002 14.1083L139.207 16.5023ZM31.8685 160.182L28.664 157.788L28.664 157.788L31.8685 160.182ZM131.537 308.259L128.332 305.865L128.332 305.865L131.537 308.259ZM238.875 164.58L235.67 162.186L235.67 162.186L238.875 164.58ZM136.002 14.1083L28.664 157.788L35.073 162.576L142.411 18.8963L136.002 14.1083ZM46.0809 194.74H81.2293V186.74H46.0809V194.74ZM95.2767 209.646V296.608H103.277V209.646H95.2767ZM134.741 310.653L242.079 166.974L235.67 162.186L128.332 305.865L134.741 310.653ZM224.662 130.022H189.514V138.022H224.662V130.022ZM175.466 115.116V28.1543H167.466V115.116H175.466ZM189.514 130.022C181.929 130.022 175.466 123.525 175.466 115.116H167.466C167.466 127.589 177.164 138.022 189.514 138.022V130.022ZM242.079 166.974C253.111 152.207 243.344 130.022 224.662 130.022V138.022C236.067 138.022 243.181 152.133 235.67 162.186L242.079 166.974ZM95.2767 296.608C95.2767 307.369 101.84 315.266 110.083 318.243C118.349 321.229 128.318 319.251 134.741 310.653L128.332 305.865C124.181 311.421 118.02 312.604 112.8 310.719C107.556 308.825 103.277 303.819 103.277 296.608H95.2767ZM81.2293 194.74C88.8143 194.74 95.2767 201.236 95.2767 209.646H103.277C103.277 197.173 93.5789 186.74 81.2293 186.74V194.74ZM28.664 157.788C17.6319 172.555 27.3994 194.74 46.0809 194.74V186.74C34.676 186.74 27.5625 172.629 35.073 162.576L28.664 157.788ZM142.411 18.8963C146.562 13.3405 152.723 12.1575 157.943 14.0429C163.187 15.937 167.466 20.9426 167.466 28.1543H175.466C175.466 17.393 168.903 9.49569 160.66 6.51865C152.394 3.53282 142.425 5.51036 136.002 14.1083L142.411 18.8963Z" fill="#022A1E"/>
</svg>
