<svg width="338" height="338" viewBox="0 0 338 338" fill="none" xmlns="http://www.w3.org/2000/svg">
<g clip-path="url(#clip0_58_580)">
<path d="M167.664 76.9905C179.051 53.0032 211.949 53.0032 223.336 76.9904L243.014 118.447C247.536 127.972 256.276 134.574 266.386 136.102L310.389 142.75C335.849 146.596 346.015 179.127 327.592 197.799L295.752 230.068C288.436 237.482 285.097 248.165 286.824 258.634L294.341 304.199C298.69 330.563 272.074 350.669 249.302 338.221L209.945 316.708C200.902 311.765 190.098 311.765 181.055 316.708L141.698 338.221C118.926 350.669 92.31 330.564 96.6592 304.199L104.176 258.634C105.903 248.165 102.564 237.482 95.2484 230.068L63.408 197.799C44.9846 179.127 55.1508 146.596 80.6113 142.75L124.614 136.102C134.724 134.574 143.464 127.972 147.986 118.447L167.664 76.9905Z" fill="#DEF54C"/>
<path d="M120.451 22.4819C131.516 -0.827276 163.484 -0.82732 174.549 22.4819L193.671 62.7662C198.065 72.0223 206.558 78.4379 216.382 79.9222L259.141 86.382C283.882 90.1198 293.761 121.731 275.858 139.875L244.918 171.232C237.808 178.437 234.564 188.817 236.243 198.991L243.547 243.268C247.773 268.887 221.91 288.424 199.781 276.328L161.536 255.423C152.749 250.62 142.251 250.62 133.464 255.423L95.2192 276.328C73.0904 288.424 47.2271 268.887 51.4533 243.268L58.7573 198.991C60.4356 188.817 57.1915 178.437 50.0824 171.232L19.142 139.875C1.23941 121.731 11.1183 90.1198 35.8591 86.382L78.6176 79.9222C88.4422 78.4379 96.9353 72.0223 101.329 62.7662L120.451 22.4819Z" fill="white" stroke="#022A1E" stroke-width="8" stroke-linejoin="round"/>
</g>
<defs>
<clipPath id="clip0_58_580">
<rect width="338" height="338" fill="white"/>
</clipPath>
</defs>
</svg>
