<svg width="214" height="230" viewBox="0 0 214 230" fill="none" xmlns="http://www.w3.org/2000/svg">
<circle cx="107.156" cy="106.812" r="106.812" fill="#DEF54C"/>
<path d="M123.217 216.16C113.499 216.16 104.81 214.411 97.1484 210.915C89.4873 207.367 83.4201 202.457 78.9468 196.184C74.4735 189.911 72.1083 182.687 71.8512 174.512H86.428C86.685 180.27 88.4589 185.309 91.7496 189.628C95.0403 193.896 99.4107 197.238 104.861 199.655C110.311 202.02 116.378 203.202 123.063 203.202C130.364 203.202 136.791 201.84 142.344 199.115C147.948 196.39 152.319 192.662 155.455 187.932C158.643 183.15 160.237 177.751 160.237 171.735C160.237 165.36 158.617 159.729 155.378 154.845C152.139 149.96 147.486 146.155 141.418 143.43C135.403 140.705 128.204 139.343 119.823 139.343H110.568V126.385H119.823C126.662 126.385 132.703 125.151 137.948 122.683C143.244 120.164 147.409 116.642 150.442 112.117C153.476 107.593 154.993 102.271 154.993 96.1522C154.993 90.3421 153.681 85.2261 151.059 80.8043C148.437 76.3824 144.735 72.9118 139.953 70.3923C135.223 67.8729 129.695 66.6132 123.371 66.6132C117.252 66.6132 111.648 67.7958 106.558 70.161C101.467 72.5261 97.3541 75.8682 94.2176 80.1873C91.1326 84.5063 89.4873 89.6223 89.2816 95.5352H75.3219C75.5276 87.3085 77.7899 80.0844 82.1089 73.863C86.4794 67.5901 92.2638 62.7055 99.4622 59.2091C106.712 55.6614 114.733 53.8875 123.525 53.8875C132.832 53.8875 140.879 55.7899 147.666 59.5948C154.453 63.3996 159.697 68.4642 163.399 74.7885C167.153 81.0614 169.029 87.9769 169.029 95.5352C169.029 104.533 166.587 112.246 161.702 118.673C156.818 125.049 150.236 129.47 141.958 131.938V132.941C152.036 134.946 159.954 139.42 165.713 146.361C171.523 153.251 174.428 161.709 174.428 171.735C174.428 180.168 172.217 187.752 167.795 194.487C163.373 201.171 157.306 206.467 149.594 210.375C141.933 214.231 133.14 216.16 123.217 216.16Z" fill="white"/>
<path d="M97.8169 218.16C88.0991 218.16 79.4096 216.411 71.7485 212.915C64.0874 209.367 58.0202 204.457 53.5469 198.184C49.0736 191.911 46.7084 184.687 46.4513 176.512H61.0281C61.2851 182.27 63.059 187.309 66.3497 191.628C69.6404 195.896 74.0108 199.238 79.461 201.655C84.9113 204.02 90.9785 205.202 97.6627 205.202C104.964 205.202 111.391 203.84 116.944 201.115C122.548 198.39 126.919 194.662 130.055 189.932C133.243 185.15 134.837 179.751 134.837 173.735C134.837 167.36 133.218 161.729 129.978 156.845C126.739 151.96 122.086 148.155 116.019 145.43C110.003 142.705 102.804 141.343 94.4234 141.343H85.1683V128.385H94.4234C101.262 128.385 107.303 127.151 112.548 124.683C117.844 122.164 122.009 118.642 125.042 114.117C128.076 109.593 129.593 104.271 129.593 98.1522C129.593 92.3421 128.281 87.2261 125.659 82.8043C123.037 78.3824 119.335 74.9118 114.553 72.3923C109.823 69.8729 104.295 68.6132 97.9712 68.6132C91.8525 68.6132 86.2481 69.7958 81.1578 72.161C76.0675 74.5261 71.9542 77.8682 68.8177 82.1873C65.7327 86.5063 64.0874 91.6223 63.8817 97.5352H49.922C50.1277 89.3085 52.39 82.0844 56.709 75.863C61.0795 69.5901 66.8639 64.7055 74.0623 61.2091C81.3121 57.6614 89.3331 55.8875 98.1254 55.8875C107.432 55.8875 115.479 57.7899 122.266 61.5948C129.053 65.3996 134.297 70.4642 137.999 76.7885C141.753 83.0614 143.629 89.9769 143.629 97.5352C143.629 106.533 141.187 114.246 136.303 120.673C131.418 127.049 124.837 131.47 116.558 133.938V134.941C126.636 136.946 134.554 141.42 140.313 148.361C146.123 155.251 149.028 163.709 149.028 173.735C149.028 182.168 146.817 189.752 142.395 196.487C137.974 203.171 131.906 208.467 124.194 212.375C116.533 216.231 107.74 218.16 97.8169 218.16Z" fill="#022A1E"/>
</svg>
