<svg width="215" height="230" viewBox="0 0 215 230" fill="none" xmlns="http://www.w3.org/2000/svg">
<circle cx="107.6" cy="106.812" r="106.812" fill="#DEF54C"/>
<path d="M72.3722 214V203.434L123.969 145.435C130.705 137.826 136.129 131.321 140.243 125.923C144.356 120.524 147.338 115.536 149.189 110.96C151.092 106.384 152.043 101.628 152.043 96.6921C152.043 90.6763 150.629 85.4318 147.801 80.9585C145.024 76.4338 141.194 72.9118 136.309 70.3923C131.425 67.8729 125.923 66.6132 119.804 66.6132C113.326 66.6132 107.644 68.0014 102.76 70.7779C97.9265 73.5545 94.173 77.3593 91.4993 82.1925C88.8257 87.0257 87.4888 92.5788 87.4888 98.8516H73.6833C73.6833 90.1107 75.6886 82.3725 79.6991 75.6369C83.7611 68.8498 89.2884 63.5282 96.2811 59.6719C103.325 55.8156 111.295 53.8875 120.19 53.8875C128.982 53.8875 136.798 55.7899 143.636 59.5948C150.475 63.3482 155.848 68.4642 159.755 74.9427C163.663 81.4213 165.617 88.6711 165.617 96.6921C165.617 102.502 164.589 108.132 162.532 113.583C160.527 119.033 157.056 125.1 152.12 131.784C147.184 138.468 140.345 146.644 131.605 156.31L92.4248 200.04V201.043H170.553V214H72.3722Z" fill="white"/>
<path d="M46.9723 216V205.434L98.5693 147.435C105.305 139.826 110.729 133.321 114.843 127.923C118.956 122.524 121.938 117.536 123.789 112.96C125.692 108.384 126.643 103.628 126.643 98.6921C126.643 92.6763 125.229 87.4318 122.401 82.9585C119.625 78.4338 115.794 74.9118 110.909 72.3923C106.025 69.8729 100.523 68.6132 94.4045 68.6132C87.926 68.6132 82.2444 70.0014 77.3598 72.7779C72.5266 75.5545 68.7731 79.3593 66.0994 84.1925C63.4257 89.0257 62.0889 94.5788 62.0889 100.852H48.2834C48.2834 92.1107 50.2887 84.3725 54.2992 77.6369C58.3612 70.8498 63.8885 65.5282 70.8812 61.6719C77.9253 57.8156 85.895 55.8875 94.7901 55.8875C103.582 55.8875 111.398 57.7899 118.236 61.5948C125.075 65.3482 130.448 70.4642 134.356 76.9427C138.263 83.4213 140.217 90.6711 140.217 98.6921C140.217 104.502 139.189 110.132 137.132 115.583C135.127 121.033 131.656 127.1 126.72 133.784C121.784 140.468 114.946 148.644 106.205 158.31L67.0249 202.04V203.043H145.153V216H46.9723Z" fill="#022A1E"/>
</svg>
