<svg width="338" height="338" viewBox="0 0 338 338" fill="none" xmlns="http://www.w3.org/2000/svg">
<path fill-rule="evenodd" clip-rule="evenodd" d="M174.563 42.7015C180.905 39.1779 188.617 39.178 194.96 42.7016L241.568 68.5955C248.235 72.2993 252.37 79.3263 252.37 86.9528V137.361C252.37 144.988 248.235 152.015 241.568 155.719L194.96 181.612C188.617 185.136 180.905 185.136 174.563 181.613L127.953 155.719C121.286 152.015 117.151 144.988 117.151 137.361V86.9529C117.151 79.3264 121.286 72.2993 127.953 68.5956L174.563 42.7015ZM91.9261 177.92C98.2686 174.396 105.981 174.396 112.323 177.92L158.932 203.814C165.598 207.518 169.733 214.545 169.733 222.171V272.58C169.733 280.206 165.598 287.233 158.932 290.937L112.323 316.831C105.981 320.354 98.2686 320.354 91.9261 316.831L45.3162 290.937C38.6494 287.233 34.5146 280.206 34.5146 272.58V222.171C34.5146 214.545 38.6494 207.518 45.3162 203.814L91.9261 177.92ZM335 222.171C335 214.545 330.865 207.518 324.198 203.814L277.59 177.92C271.247 174.396 263.535 174.396 257.193 177.92L210.583 203.814C203.916 207.518 199.781 214.545 199.781 222.171V272.58C199.781 280.206 203.916 287.233 210.583 290.937L257.193 316.831C263.535 320.354 271.247 320.354 277.59 316.831L324.198 290.937C330.865 287.233 335 280.206 335 272.58V222.171Z" fill="#DEF54C"/>
<path d="M130.02 24.4285C136.363 20.9049 144.075 20.905 150.417 24.4286L197.026 50.3225C203.693 54.0263 207.827 61.0533 207.827 68.6798V119.088C207.827 126.715 203.693 133.742 197.026 137.446L150.417 163.339C144.075 166.863 136.363 166.863 130.02 163.34L83.4105 137.446C76.7437 133.742 72.6089 126.715 72.6089 119.088V68.6799C72.6089 61.0534 76.7437 54.0263 83.4105 50.3225L130.02 24.4285Z" stroke="#022A1E" stroke-width="8" stroke-linejoin="round"/>
<path d="M62.4107 137.11C68.7532 133.587 76.4652 133.587 82.8077 137.11L129.416 163.004C136.083 166.708 140.218 173.735 140.218 181.361V231.77C140.218 239.396 136.083 246.423 129.416 250.127L82.8077 276.021C76.4652 279.545 68.7532 279.545 62.4107 276.021L15.8008 250.127C9.13403 246.423 4.99926 239.396 4.99926 231.77V181.362C4.99926 173.735 9.13403 166.708 15.8008 163.004L62.4107 137.11Z" stroke="#022A1E" stroke-width="8" stroke-linejoin="round"/>
<path d="M197.628 137.11C203.97 133.587 211.683 133.587 218.025 137.11L264.634 163.004C271.3 166.708 275.435 173.735 275.435 181.361V231.77C275.435 239.396 271.3 246.423 264.634 250.127L218.025 276.021C211.683 279.545 203.97 279.545 197.628 276.021L151.018 250.127C144.351 246.423 140.217 239.396 140.217 231.77V181.362C140.217 173.735 144.351 166.708 151.018 163.004L197.628 137.11Z" stroke="#022A1E" stroke-width="8" stroke-linejoin="round"/>
</svg>
