<svg width="338" height="338" viewBox="0 0 338 338" fill="none" xmlns="http://www.w3.org/2000/svg">
<g clip-path="url(#clip0_53_345)">
<path fill-rule="evenodd" clip-rule="evenodd" d="M213.308 58.1442C201.363 47.965 183.794 47.9649 171.85 58.1442L161.316 67.1205C156.198 71.4826 149.834 74.1187 143.13 74.6537L129.334 75.7546C113.69 77.003 101.268 89.4257 100.019 105.07L98.9184 118.865C98.3834 125.569 95.7472 131.933 91.3852 137.052L82.4089 147.585C72.2296 159.53 72.2296 177.098 82.4089 189.043L91.3852 199.576C95.7472 204.695 98.3834 211.059 98.9184 217.763L100.019 231.558C101.268 247.202 113.69 259.625 129.334 260.873L143.13 261.974C149.834 262.509 156.198 265.145 161.316 269.507L171.85 278.484C183.794 288.663 201.363 288.663 213.308 278.484L223.841 269.507C228.959 265.145 235.324 262.509 242.027 261.974L255.823 260.873C271.467 259.625 283.889 247.202 285.138 231.558L286.239 217.763C286.774 211.059 289.41 204.695 293.772 199.576L302.748 189.043C312.927 177.098 312.928 159.53 302.748 147.585L293.772 137.052C289.41 131.933 286.774 125.569 286.239 118.865L285.138 105.07C283.889 89.4257 271.467 77.003 255.823 75.7546L242.027 74.6537C235.324 74.1187 228.959 71.4826 223.841 67.1205L213.308 58.1442ZM118.951 323.274V281.504C121.747 282.19 124.628 282.661 127.578 282.896L141.373 283.997C143.444 284.162 145.409 284.976 146.99 286.323L157.523 295.3C177.724 312.514 207.434 312.514 227.635 295.3L238.168 286.323C239.749 284.976 241.714 284.162 243.785 283.997L257.58 282.896C260.53 282.661 263.411 282.19 266.207 281.504V323.274C266.207 333.692 255.685 340.816 246.012 336.947L198.048 317.761C194.537 316.357 190.621 316.357 187.11 317.761L139.146 336.947C129.473 340.816 118.951 333.692 118.951 323.274Z" fill="#DEF54C"/>
<path d="M182.238 302.432L183.724 298.718L183.724 298.718L182.238 302.432ZM134.274 283.247L135.759 279.533L135.759 279.533L134.274 283.247ZM123.336 283.247L124.821 286.961L124.821 286.961L123.336 283.247ZM75.3717 302.432L76.8573 306.146L76.8573 306.146L75.3717 302.432ZM198.432 222.157V288.76H206.432V222.157H198.432ZM59.1772 288.76V222.157H51.1772V288.76H59.1772ZM183.724 298.718L135.759 279.533L132.788 286.961L180.752 306.146L183.724 298.718ZM121.85 279.533L73.8861 298.718L76.8573 306.146L124.821 286.961L121.85 279.533ZM135.759 279.533C131.295 277.747 126.315 277.747 121.85 279.533L124.821 286.961C127.379 285.938 130.231 285.938 132.788 286.961L135.759 279.533ZM51.1772 288.76C51.1772 302.008 64.5571 311.066 76.8573 306.146L73.8861 298.718C66.8409 301.536 59.1772 296.348 59.1772 288.76H51.1772ZM198.432 288.76C198.432 296.348 190.769 301.536 183.724 298.718L180.752 306.146C193.053 311.066 206.432 302.008 206.432 288.76H198.432Z" fill="#022A1E"/>
<path d="M79.3553 40.144L79.6735 44.1313L79.6735 44.1313L79.3553 40.144ZM97.542 32.6108L100.136 35.6552L100.136 35.6552L97.542 32.6108ZM36.2448 70.56L32.2575 70.2418L32.2575 70.2418L36.2448 70.56ZM65.56 41.2448L65.2418 37.2575L65.2418 37.2575L65.56 41.2448ZM27.6108 102.542L24.5663 99.9475L24.5663 99.9475L27.6108 102.542ZM35.144 84.3553L39.1313 84.6735L39.1313 84.6735L35.144 84.3553ZM18.6345 154.533L21.6789 151.939L21.6789 151.939L18.6345 154.533ZM18.6345 113.075L21.6789 115.67L21.6789 115.67L18.6345 113.075ZM35.144 183.253L39.1313 182.935L39.1313 182.935L35.144 183.253ZM27.6108 165.066L24.5663 167.661L24.5663 167.661L27.6108 165.066ZM65.56 226.363L65.2418 230.351L65.2418 230.351L65.56 226.363ZM36.2448 197.048L32.2575 197.366L32.2575 197.366L36.2448 197.048ZM97.542 234.997L94.9475 238.042L94.9475 238.042L97.542 234.997ZM79.3553 227.464L79.6735 223.477L79.6735 223.477L79.3553 227.464ZM149.533 243.974L152.128 247.018L152.128 247.018L149.533 243.974ZM108.075 243.974L110.67 240.929L110.67 240.929L108.075 243.974ZM178.253 227.464L177.935 223.477L177.935 223.477L178.253 227.464ZM160.066 234.997L157.472 231.953L157.472 231.953L160.066 234.997ZM221.363 197.048L225.351 197.366L225.351 197.366L221.363 197.048ZM192.048 226.363L192.366 230.351L192.366 230.351L192.048 226.363ZM229.997 165.066L226.953 162.472L226.953 162.472L229.997 165.066ZM222.464 183.253L218.477 182.935L218.477 182.935L222.464 183.253ZM238.974 113.075L235.929 115.67L235.929 115.67L238.974 113.075ZM238.974 154.533L242.018 157.128L242.018 157.128L238.974 154.533ZM222.464 84.3553L218.477 84.6735L218.477 84.6735L222.464 84.3553ZM229.997 102.542L233.042 99.9475L233.042 99.9475L229.997 102.542ZM192.048 41.2448L192.366 37.2575L192.366 37.2575L192.048 41.2448ZM221.363 70.56L225.351 70.2418L225.351 70.2418L221.363 70.56ZM160.066 32.6108L162.661 29.5663L162.661 29.5663L160.066 32.6108ZM178.253 40.144L177.935 44.1313L177.935 44.1313L178.253 40.144ZM149.533 23.6345L146.939 26.6789L146.939 26.6789L149.533 23.6345ZM108.075 23.6345L105.481 20.59L105.481 20.59L108.075 23.6345ZM146.939 26.6789L157.472 35.6552L162.661 29.5663L152.128 20.59L146.939 26.6789ZM177.935 44.1313L191.73 45.2321L192.366 37.2575L178.571 36.1566L177.935 44.1313ZM217.376 70.8782L218.477 84.6735L226.452 84.0371L225.351 70.2418L217.376 70.8782ZM226.953 105.136L235.929 115.67L242.018 110.481L233.042 99.9475L226.953 105.136ZM235.929 151.939L226.953 162.472L233.042 167.661L242.018 157.128L235.929 151.939ZM218.477 182.935L217.376 196.73L225.351 197.366L226.452 183.571L218.477 182.935ZM191.73 222.376L177.935 223.477L178.571 231.452L192.366 230.351L191.73 222.376ZM157.472 231.953L146.939 240.929L152.128 247.018L162.661 238.042L157.472 231.953ZM110.67 240.929L100.136 231.953L94.9475 238.042L105.481 247.018L110.67 240.929ZM79.6735 223.477L65.8782 222.376L65.2418 230.351L79.0371 231.452L79.6735 223.477ZM40.2321 196.73L39.1313 182.935L31.1566 183.571L32.2575 197.366L40.2321 196.73ZM30.6552 162.472L21.6789 151.939L15.59 157.128L24.5663 167.661L30.6552 162.472ZM21.6789 115.67L30.6552 105.136L24.5663 99.9475L15.59 110.481L21.6789 115.67ZM39.1313 84.6735L40.2321 70.8782L32.2575 70.2418L31.1566 84.0371L39.1313 84.6735ZM65.8782 45.2321L79.6735 44.1313L79.0371 36.1566L65.2418 37.2575L65.8782 45.2321ZM100.136 35.6552L110.67 26.6789L105.481 20.59L94.9475 29.5663L100.136 35.6552ZM79.6735 44.1313C87.2164 43.5294 94.3772 40.5632 100.136 35.6552L94.9475 29.5663C90.4696 33.3824 84.9019 35.6886 79.0371 36.1566L79.6735 44.1313ZM40.2321 70.8782C41.3243 57.1921 52.1921 46.3243 65.8782 45.2321L65.2418 37.2575C47.6397 38.6622 33.6622 52.6397 32.2575 70.2418L40.2321 70.8782ZM30.6552 105.136C35.5633 99.3772 38.5294 92.2164 39.1313 84.6735L31.1566 84.0371C30.6886 89.9019 28.3824 95.4696 24.5663 99.9475L30.6552 105.136ZM21.6789 151.939C12.7737 141.489 12.7737 126.119 21.6789 115.67L15.59 110.481C4.13667 123.921 4.13666 143.688 15.59 157.128L21.6789 151.939ZM39.1313 182.935C38.5294 175.392 35.5632 168.231 30.6552 162.472L24.5663 167.661C28.3824 172.139 30.6886 177.706 31.1566 183.571L39.1313 182.935ZM65.8782 222.376C52.1921 221.284 41.3243 210.416 40.2321 196.73L32.2575 197.366C33.6622 214.969 47.6397 228.946 65.2418 230.351L65.8782 222.376ZM100.136 231.953C94.3772 227.045 87.2164 224.079 79.6735 223.477L79.0371 231.452C84.9019 231.92 90.4696 234.226 94.9475 238.042L100.136 231.953ZM146.939 240.929C136.489 249.835 121.119 249.835 110.67 240.929L105.481 247.018C118.921 258.472 138.688 258.472 152.128 247.018L146.939 240.929ZM177.935 223.477C170.392 224.079 163.231 227.045 157.472 231.953L162.661 238.042C167.139 234.226 172.706 231.92 178.571 231.452L177.935 223.477ZM217.376 196.73C216.284 210.416 205.416 221.284 191.73 222.376L192.366 230.351C209.969 228.946 223.946 214.969 225.351 197.366L217.376 196.73ZM226.953 162.472C222.045 168.231 219.079 175.392 218.477 182.935L226.452 183.571C226.92 177.706 229.226 172.139 233.042 167.661L226.953 162.472ZM235.929 115.67C244.835 126.119 244.835 141.489 235.929 151.939L242.018 157.128C253.472 143.688 253.472 123.921 242.018 110.481L235.929 115.67ZM218.477 84.6735C219.079 92.2164 222.045 99.3772 226.953 105.136L233.042 99.9475C229.226 95.4696 226.92 89.9019 226.452 84.0371L218.477 84.6735ZM191.73 45.2321C205.416 46.3243 216.284 57.1922 217.376 70.8782L225.351 70.2418C223.946 52.6397 209.969 38.6622 192.366 37.2575L191.73 45.2321ZM157.472 35.6552C163.231 40.5633 170.392 43.5294 177.935 44.1313L178.571 36.1566C172.706 35.6886 167.139 33.3824 162.661 29.5663L157.472 35.6552ZM152.128 20.59C138.688 9.13667 118.921 9.13666 105.481 20.59L110.67 26.6789C121.119 17.7737 136.489 17.7737 146.939 26.6789L152.128 20.59Z" fill="#022A1E"/>
</g>
<defs>
<clipPath id="clip0_53_345">
<rect width="338" height="338" fill="white"/>
</clipPath>
</defs>
</svg>
